# xmcd
# 
# Track frame offsets:
#     150
#     25565
#     50667
#     76897
#     103322
# 
# Disc length: 1685
# 
# Revision: 1
# Processed by: cddbd v1.5.2PL0 Copyright (c) Steve Scherf et al.
# Submitted via: fre:ac v1.1beta1pre5
# 
DISCID=35069305
DTITLE=秋吉敏子 - 秋吉敏子リサイタル-黄色い長い道
DYEAR=1961
DGENRE=J-Jazz
TTITLE0=Long yellow Road (黄色い長い道)
TTITLE1=Hakone Twilight (箱根のたそがれ)
TTITLE2=Kisarazu Zinku (木更津甚句)
TTITLE3=Solvague Song (ソルヴェーグの歌)
TTITLE4=Deep River
EXTD=
EXTT0=
EXTT1=
EXTT2=
EXTT3=
EXTT4=
PLAYORDER=
